<svg width="550" height="550" viewBox="0 0 550 550" fill="none" xmlns="http://www.w3.org/2000/svg">
<g clip-path="url(#clip0_15_18)">
<rect width="550" height="550" rx="20" fill="white"/>
<rect width="550" height="550" rx="15" fill="#F5EDED"/>
<rect x="456.155" y="301.5" width="70" height="127" rx="7.5" transform="rotate(-180 456.155 301.5)" fill="#F5EDED" stroke="#434040" stroke-width="5"/>
<rect x="425.5" y="310.626" width="70" height="127" rx="7.5" transform="rotate(-180 425.5 310.626)" fill="#F5EDED" stroke="#434040" stroke-width="5"/>
<path d="M332 321.626H387C391.142 321.626 394.5 318.268 394.5 314.126V202.126C394.5 197.984 391.142 194.626 387 194.626H332C327.858 194.626 324.5 197.984 324.5 202.126V314.126C324.5 318.268 327.858 321.626 332 321.626Z" fill="#F5EDED" stroke="#434040" stroke-width="5"/>
<path d="M130.318 221.636L154.182 303.682H155.091L178.955 221.636H214.636L176.227 338H133.045L94.6364 221.636H130.318ZM226.298 338V250.727H257.662V338H226.298ZM241.98 241.636C237.738 241.636 234.101 240.235 231.071 237.432C228.041 234.629 226.526 231.258 226.526 227.318C226.526 223.379 228.041 220.008 231.071 217.205C234.101 214.401 237.738 213 241.98 213C246.26 213 249.897 214.401 252.889 217.205C255.92 220.008 257.435 223.379 257.435 227.318C257.435 231.258 255.92 234.629 252.889 237.432C249.897 240.235 246.26 241.636 241.98 241.636ZM297.96 339.364C292.392 339.364 287.468 338.455 283.188 336.636C278.945 334.78 275.612 331.977 273.188 328.227C270.763 324.477 269.551 319.705 269.551 313.909C269.551 309.136 270.366 305.064 271.994 301.693C273.623 298.284 275.896 295.5 278.812 293.341C281.729 291.182 285.119 289.534 288.983 288.398C292.884 287.261 297.089 286.523 301.597 286.182C306.483 285.803 310.403 285.348 313.358 284.818C316.35 284.25 318.509 283.473 319.835 282.489C321.161 281.466 321.824 280.121 321.824 278.455V278.227C321.824 275.955 320.953 274.212 319.21 273C317.468 271.788 315.233 271.182 312.506 271.182C309.513 271.182 307.07 271.845 305.176 273.17C303.32 274.458 302.203 276.447 301.824 279.136H272.96C273.339 273.833 275.025 268.947 278.017 264.477C281.047 259.97 285.46 256.371 291.256 253.682C297.051 250.955 304.286 249.591 312.96 249.591C319.21 249.591 324.816 250.33 329.778 251.807C334.741 253.246 338.964 255.273 342.449 257.886C345.934 260.462 348.585 263.492 350.403 266.977C352.259 270.424 353.188 274.174 353.188 278.227V338H323.869V325.727H323.188C321.445 328.985 319.324 331.617 316.824 333.625C314.362 335.633 311.54 337.091 308.358 338C305.214 338.909 301.748 339.364 297.96 339.364ZM308.188 319.591C310.574 319.591 312.809 319.098 314.892 318.114C317.013 317.129 318.737 315.708 320.062 313.852C321.388 311.996 322.051 309.742 322.051 307.091V299.818C321.218 300.159 320.328 300.481 319.381 300.784C318.472 301.087 317.487 301.371 316.426 301.636C315.403 301.901 314.305 302.148 313.131 302.375C311.994 302.602 310.801 302.811 309.551 303C307.127 303.379 305.138 304.004 303.585 304.875C302.07 305.708 300.934 306.75 300.176 308C299.456 309.212 299.097 310.576 299.097 312.091C299.097 314.515 299.949 316.371 301.653 317.659C303.358 318.947 305.536 319.591 308.188 319.591Z" fill="#151010"/>
</g>
<defs>
<clipPath id="clip0_15_18">
<rect width="550" height="550" rx="20" fill="white"/>
</clipPath>
</defs>
</svg>
